<svg xmlns="http://www.w3.org/2000/svg"  viewBox="0 0 30 30" width="30px" height="30px"><path d="M 14.972656 1 A 1.0001 1.0001 0 0 0 14.173828 1.4375 L 6.1738281 13.167969 A 1.0001 1.0001 0 0 0 6.5527344 14.626953 L 14.552734 18.621094 A 1.0001 1.0001 0 0 0 15.447266 18.621094 L 23.447266 14.626953 A 1.0001 1.0001 0 0 0 23.826172 13.167969 L 15.826172 1.4375 A 1.0001 1.0001 0 0 0 14.972656 1 z M 15 3.7734375 L 15 11 L 21.519531 13.355469 L 15 16.609375 L 15 11 L 8.5761719 13.193359 L 15 3.7734375 z M 6.9628906 17 A 1.0001 1.0001 0 0 0 6.21875 18.625 L 14.21875 28.625 A 1.0001 1.0001 0 0 0 15.78125 28.625 L 23.78125 18.625 A 1.0001 1.0001 0 0 0 22.552734 17.105469 L 15 20.882812 L 7.4472656 17.105469 A 1.0001 1.0001 0 0 0 6.9628906 17 z M 10.626953 20.931641 L 14.552734 22.894531 A 1.0001 1.0001 0 0 0 15 23 L 15 26.398438 L 10.626953 20.931641 z"/></svg>