<svg width="152" height="34" viewBox="0 0 152 34" fill="none" xmlns="http://www.w3.org/2000/svg">
<path d="M61.6842 21.8128L60.0509 19.3787H50.8618L49.2438 21.8128H47L54.2352 11.1716H56.6928L63.9433 21.8128H61.6842ZM51.7777 18.0057H59.1351L55.4564 12.4979L51.7777 18.0057Z" fill="black"/>
<path d="M66.8652 21.8128H65.003V11.1716H66.8652V21.8128Z" fill="black"/>
<path d="M70.8899 21.8128H69.0277V11.1716H70.8899V17.1787L73.5307 15.3064L80.0637 11.1716H82.7045L76.1256 15.556L82.9334 21.8128H80.4454L74.6297 16.4922L70.8899 18.8794V21.8128Z" fill="black"/>
<path d="M86.8101 21.8128H84.9478V11.1716H86.8101V21.8128Z" fill="black"/>
<path d="M102.405 18.9887C102.405 21.1106 100.97 22 95.9636 22C93.5824 22 90.6516 21.6567 88.8657 21.2355L89.1252 19.6752C91.0943 20.1121 93.9029 20.4709 96.391 20.4709C99.9628 20.4709 100.634 20.0496 100.634 18.9418C100.634 17.7716 99.9475 17.5844 98.6348 17.444L92.697 16.9135C90.0258 16.7106 88.6978 15.9929 88.6978 14.0426C88.6978 11.8426 90.4227 11 95.1241 11C97.1084 11 100.039 11.2965 101.932 11.7021L101.627 13.1844C99.856 12.8255 96.971 12.5291 94.7424 12.5291C91.1401 12.5291 90.4685 12.9035 90.4685 13.9957C90.4685 15.0255 91.2164 15.2128 92.6207 15.3688L98.4059 15.8681C100.955 16.0709 102.405 16.7418 102.405 18.9887Z" fill="black"/>
<path d="M117.775 21.8128H104.296V11.1716H117.775V12.7007H106.159V15.7433H117.485V17.0383H106.159V20.2837H117.775V21.8128Z" fill="black"/>
<path d="M121.646 21.8128H119.784V11.1716H121.921L132.591 19.7532V11.1716H134.453V21.8128H132.331L121.646 13.1688V21.8128Z" fill="black"/>
<path d="M145.91 21.8128H136.614V11.1716H145.91C149.894 11.1716 152 12.5915 152 16.4766C152 20.4085 149.878 21.8128 145.91 21.8128ZM138.476 12.8099V20.1745H145.742C148.886 20.1745 150.077 19.1759 150.077 16.4766C150.077 13.7773 148.886 12.8099 145.742 12.8099H138.476Z" fill="black"/>
<path d="M10.1237 24.8715L21.6978 22.0997C22.3951 21.9328 23.1284 22.1518 23.6199 22.6739L32.225 31.8157C33.5892 33.2649 36.0025 32.049 35.6497 30.0903L31.5258 7.1994C31.2597 5.72252 29.5224 5.05385 28.3348 5.97126L8.4352 21.3438C6.72963 22.6613 8.02772 25.3735 10.1237 24.8715Z" fill="#FFC700"/>
<path d="M9.05189 21.7211L21.2104 18.803C21.9087 18.6354 22.6433 18.855 23.135 19.3785L32.1079 28.9319C33.471 30.3832 35.8864 29.1685 35.5342 27.2088L31.2537 3.39644C30.9879 1.91821 29.2485 1.2494 28.0609 2.16885L7.36078 18.1949C5.6571 19.5139 6.95679 22.2239 9.05189 21.7211Z" fill="black"/>
</svg>
