<svg width="37" height="34" viewBox="0 0 37 34" fill="none" xmlns="http://www.w3.org/2000/svg">
<path d="M10.1235 24.7226L21.6976 21.9508C22.3949 21.7838 23.1283 22.0029 23.6197 22.525L32.2249 31.6668C33.5891 33.116 36.0024 31.9001 35.6495 29.9414L31.5257 7.05047C31.2596 5.5736 29.5222 4.90493 28.3347 5.82233L8.43508 21.1948C6.72951 22.5124 8.0276 25.2245 10.1235 24.7226Z" fill="#FFC700"/>
<path d="M9.05189 21.5722L21.2104 18.654C21.9087 18.4864 22.6433 18.7061 23.135 19.2296L32.1079 28.783C33.471 30.2343 35.8864 29.0195 35.5342 27.0599L31.2537 3.24751C30.9879 1.76928 29.2485 1.10048 28.0609 2.01992L7.36078 18.046C5.6571 19.3649 6.95679 22.075 9.05189 21.5722Z" fill="white"/>
</svg>
