<svg width="308" height="319" viewBox="0 0 308 319" fill="none" xmlns="http://www.w3.org/2000/svg">
<g clip-path="url(#clip0_21_2181)">
<path opacity="0.35" d="M177.923 156.949L158.874 129.12C158.033 127.894 156.872 126.822 155.386 126.822C153.898 126.822 152.508 127.555 151.67 128.782L132.621 156.607C131.902 157.658 131.66 158.97 131.96 160.217C132.207 161.231 132.802 162.118 133.622 162.739C132.966 164.182 133.101 165.888 134.08 167.235L151.75 191.49C152.595 192.646 153.954 193.336 155.386 193.336C156.819 193.336 158.18 192.644 159.025 191.485L176.701 167.235C177.683 165.889 177.817 164.179 177.157 162.731C177.972 162.109 178.337 161.565 178.585 160.549C178.882 159.314 178.642 158.004 177.923 156.949Z" fill="white"/>
<path d="M176.764 155.223L157.715 127.393C156.874 126.167 155.486 125.436 154 125.436C152.512 125.436 151.123 126.17 150.284 127.396L131.235 155.222C130.516 156.272 130.274 157.584 130.574 158.832C130.821 159.845 131.416 160.732 132.236 161.353C131.58 162.797 131.715 164.503 132.695 165.849L150.364 190.104C151.209 191.26 152.569 191.95 154 191.95C155.433 191.95 156.794 191.258 157.64 190.099L175.315 165.849C176.297 164.503 176.431 162.793 175.771 161.345C176.586 160.724 177.178 159.839 177.426 158.822C177.723 157.589 177.484 156.278 176.764 155.223Z" fill="#F2F2F2"/>
<path d="M154 129.939L173.048 157.767L154 168.047L134.951 157.767L154 129.939Z" fill="#9AA2E6"/>
<path d="M154 172.897L171.675 163.197L154 187.447L136.334 163.197L154 172.897Z" fill="#9AA2E6"/>
<path d="M154 148.3L135.293 158L154 167.7L172.707 158L154 148.3Z" fill="#707CC0"/>
<path d="M154 129.939L173.048 157.767L154 168.047L134.951 157.767L154 129.939Z" stroke="#40396E" stroke-width="3" stroke-miterlimit="10" stroke-linejoin="round"/>
<path d="M169.936 164.929L154 187.1V172.55L169.936 164.929Z" fill="#707CC0"/>
<path d="M154 172.897L171.675 163.197L154 187.447L136.334 163.197L154 172.897Z" stroke="#40396E" stroke-width="3" stroke-miterlimit="10" stroke-linejoin="round"/>
<path opacity="0.35" d="M172.707 157.587L154 167.98V130.566L172.707 157.587Z" fill="#40396E"/>
</g>
<g clip-path="url(#clip1_21_2181)">
<path d="M91.5309 259.965H48.7517V298.872H91.5309V259.965Z" fill="white"/>
<path fill-rule="evenodd" clip-rule="evenodd" d="M104.784 282.737C104.784 301.858 89.2844 317.357 70.1642 317.357C51.0442 317.357 35.5444 301.858 35.5444 282.737C35.5444 263.617 51.0442 248.118 70.1642 248.118C89.2844 248.118 104.784 263.617 104.784 282.737ZM60.354 296.514H53.6352C52.2234 296.514 51.5261 296.514 51.1009 296.242C50.6416 295.945 50.3609 295.451 50.3269 294.907C50.3014 294.405 50.6501 293.793 51.3475 292.568L67.9369 263.327C68.6428 262.085 68.9999 261.465 69.4507 261.235C69.9355 260.988 70.5138 260.988 70.9986 261.235C71.4493 261.465 71.8065 262.085 72.5124 263.327L75.9228 269.28L75.9402 269.311C76.7026 270.643 77.0893 271.318 77.2581 272.027C77.4451 272.801 77.4451 273.618 77.2581 274.392C77.088 275.106 76.7053 275.787 75.9313 277.139L67.2173 292.543L67.1948 292.582C66.4273 293.925 66.0384 294.606 65.4994 295.119C64.9125 295.681 64.2066 296.089 63.4327 296.319C62.7268 296.514 61.9359 296.514 60.354 296.514ZM77.321 296.514H86.9482C88.3685 296.514 89.083 296.514 89.5085 296.234C89.9676 295.936 90.2566 295.434 90.2825 294.89C90.3069 294.405 89.9658 293.816 89.2973 292.663C89.2743 292.623 89.2512 292.584 89.2277 292.543L84.4054 284.293L84.3505 284.2C83.6729 283.055 83.3308 282.476 82.8915 282.252C82.407 282.005 81.8368 282.005 81.3522 282.252C80.91 282.482 80.5528 283.086 79.8469 284.302L75.0417 292.551L75.0253 292.58C74.3218 293.794 73.9703 294.401 73.9957 294.899C74.0297 295.443 74.3103 295.945 74.7696 296.242C75.1863 296.514 75.9007 296.514 77.321 296.514Z" fill="#E84142"/>
</g>
<g clip-path="url(#clip2_21_2181)">
<path d="M7.14209 144.42V171.58C7.14209 173.326 8.05666 174.906 9.58095 175.793L33.1104 189.373C34.6069 190.232 36.4638 190.232 37.9604 189.373L61.4898 175.793C62.9864 174.934 63.9287 173.326 63.9287 171.58V144.42C63.9287 142.674 63.0141 141.094 61.4898 140.208L37.9604 126.628C36.4638 125.768 34.6069 125.768 33.1104 126.628L9.58095 140.208C8.08438 141.067 7.1698 142.674 7.1698 144.42H7.14209Z" fill="#213147"/>
<path d="M40.6487 163.266L37.2953 172.467C37.2121 172.716 37.2121 172.993 37.2953 173.271L43.0598 189.095L49.739 185.243L41.7296 163.266C41.5356 162.767 40.8427 162.767 40.6487 163.266Z" fill="#12AAFF"/>
<path d="M47.3834 147.801C47.1894 147.302 46.4965 147.302 46.3025 147.801L42.9491 157.002C42.8659 157.252 42.8659 157.529 42.9491 157.806L52.3996 183.719L59.0788 179.867L47.3834 147.829V147.801Z" fill="#12AAFF"/>
<path d="M35.5216 127.653C35.6879 127.653 35.8542 127.708 35.9928 127.791L61.4345 142.48C61.7394 142.646 61.9056 142.979 61.9056 143.311V172.689C61.9056 173.021 61.7116 173.354 61.4345 173.52L35.9928 188.209C35.8542 188.292 35.6879 188.347 35.5216 188.347C35.3554 188.347 35.1891 188.292 35.0505 188.209L9.60878 173.52C9.30392 173.354 9.13764 173.021 9.13764 172.689V143.284C9.13764 142.951 9.33164 142.619 9.60878 142.452L35.0505 127.764C35.1891 127.681 35.3554 127.625 35.5216 127.625V127.653ZM35.5216 123.357C34.6071 123.357 33.7202 123.579 32.8888 124.05L7.44707 138.739C5.81192 139.681 4.81421 141.399 4.81421 143.284V172.661C4.81421 174.545 5.81192 176.264 7.44707 177.206L32.8888 191.895C33.6925 192.366 34.6071 192.587 35.5216 192.587C36.4362 192.587 37.3231 192.366 38.1545 191.895L63.5962 177.206C65.2314 176.264 66.2291 174.545 66.2291 172.661V143.284C66.2291 141.399 65.2314 139.681 63.5962 138.739L38.1268 124.05C37.3231 123.579 36.4085 123.357 35.4939 123.357H35.5216Z" fill="#9DCCED"/>
<path d="M18.6714 183.747L21.0271 177.317L25.7385 181.225L21.332 185.271L18.6714 183.747Z" fill="#213147"/>
<path d="M33.3599 141.205H26.9025C26.4313 141.205 25.9879 141.51 25.8216 141.953L11.9922 179.867L18.6713 183.719L33.9142 141.953C34.0528 141.565 33.7756 141.177 33.3876 141.177L33.3599 141.205Z" fill="white"/>
<path d="M44.6672 141.205H38.2098C37.7386 141.205 37.2952 141.51 37.1289 141.953L21.3318 185.243L28.0109 189.095L45.1938 141.953C45.3324 141.565 45.0552 141.177 44.6672 141.177V141.205Z" fill="white"/>
</g>
<g clip-path="url(#clip3_21_2181)">
<path fill-rule="evenodd" clip-rule="evenodd" d="M237.836 0.0285645C256.97 0.0285645 272.479 15.5373 272.479 34.6714C272.479 53.8055 256.97 69.3143 237.836 69.3143C218.702 69.3143 203.193 53.8055 203.193 34.6714C203.193 15.5373 218.702 0.0285645 237.836 0.0285645Z" fill="#F0B90B"/>
<path d="M222.232 34.6713L222.257 43.8317L230.041 48.4119V53.7748L217.702 46.5381V31.9926L222.232 34.6713ZM222.232 25.5109V30.8489L217.699 28.1674V22.8294L222.232 20.1479L226.788 22.8294L222.232 25.5109ZM233.292 22.8294L237.825 20.1479L242.38 22.8294L237.825 25.5109L233.292 22.8294Z" fill="white"/>
<path d="M225.508 41.933V36.57L230.041 39.2515V44.5895L225.508 41.933ZM233.292 50.3328L237.825 53.0142L242.38 50.3328V55.6708L237.825 58.3522L233.292 55.6708V50.3328ZM248.881 22.8294L253.414 20.1479L257.969 22.8294V28.1674L253.414 30.8489V25.5109L248.881 22.8294ZM253.414 43.8317L253.439 34.6713L257.972 31.9898V46.5354L245.633 53.7721V48.4091L253.414 43.8317Z" fill="white"/>
<path d="M250.163 41.933L245.63 44.5896V39.2516L250.163 36.5701V41.933Z" fill="white"/>
<path d="M250.163 27.4097L250.188 32.7727L242.383 37.3529V46.5355L237.85 49.192L233.317 46.5355V37.3529L225.511 32.7727V27.4097L230.063 24.7283L237.822 29.3307L245.628 24.7283L250.183 27.4097H250.163ZM225.508 18.2522L237.825 10.9905L250.163 18.2522L245.63 20.9336L237.825 16.3313L230.041 20.9336L225.508 18.2522Z" fill="white"/>
</g>
<g clip-path="url(#clip4_21_2181)">
<path d="M87.8466 21.2041C86.5836 20.4824 84.9597 20.4824 83.5163 21.2041L73.4121 27.1583L66.5557 30.9474L56.632 36.9016C55.369 37.6233 53.7451 37.6233 52.3016 36.9016L44.5431 32.2104C43.28 31.4887 42.3779 30.0452 42.3779 28.4213V19.3998C42.3779 17.9563 43.0996 16.5129 44.5431 15.6107L52.3016 11.0999C53.5646 10.3782 55.1885 10.3782 56.632 11.0999L64.3905 15.7911C65.6536 16.5129 66.5557 17.9563 66.5557 19.5802V25.5344L73.4121 21.5649V15.4303C73.4121 13.9868 72.6904 12.5434 71.2469 11.6412L56.8124 3.16092C55.5494 2.4392 53.9255 2.4392 52.482 3.16092L37.6867 11.8216C36.2432 12.5434 35.5215 13.9868 35.5215 15.4303V32.3908C35.5215 33.8343 36.2432 35.2777 37.6867 36.1799L52.3016 44.6602C53.5646 45.3819 55.1885 45.3819 56.632 44.6602L66.5557 38.8864L73.4121 34.9169L83.3358 29.1431C84.5989 28.4213 86.2227 28.4213 87.6662 29.1431L95.4248 33.6539C96.6878 34.3756 97.5899 35.819 97.5899 37.4429V46.4645C97.5899 47.9079 96.8682 49.3514 95.4248 50.2536L87.8466 54.7643C86.5836 55.4861 84.9597 55.4861 83.5163 54.7643L75.7577 50.2536C74.4947 49.5318 73.5925 48.0884 73.5925 46.4645V40.6907L66.7361 44.6602V50.6144C66.7361 52.0579 67.4579 53.5013 68.9013 54.4035L83.5163 62.8838C84.7793 63.6055 86.4032 63.6055 87.8466 62.8838L102.462 54.4035C103.725 53.6818 104.627 52.2383 104.627 50.6144V33.4734C104.627 32.03 103.905 30.5865 102.462 29.6844L87.8466 21.2041Z" fill="#8247E5"/>
</g>
<g clip-path="url(#clip5_21_2181)">
<path d="M272.508 117.814L237.836 137.833V177.87L272.508 197.888L307.122 177.87V137.833L272.508 117.814ZM296.853 171.927L272.45 186.004L248.105 171.927V143.775L272.508 129.698L296.853 143.775V171.927Z" fill="#002D74"/>
<path d="M272.508 197.888L307.122 177.87V137.833L272.508 117.814V129.698L296.853 143.775V171.985L272.45 186.062V197.888H272.508Z" fill="url(#paint0_linear_21_2181)"/>
<path d="M272.45 117.814L237.836 137.833V177.87L272.45 197.888V186.004L248.105 171.927V143.717L272.45 129.698V117.814Z" fill="url(#paint1_linear_21_2181)"/>
<path d="M288.661 167.197L272.508 176.543L256.297 167.197V148.505L272.508 139.159L288.661 148.505L281.911 152.428L272.45 146.948L263.046 152.428V163.332L272.508 168.812L281.969 163.332L288.661 167.197Z" fill="#002D74"/>
</g>
<g clip-path="url(#clip6_21_2181)">
<path d="M237.836 318.05C256.968 318.05 272.479 302.54 272.479 283.407C272.479 264.274 256.968 248.764 237.836 248.764C218.703 248.764 203.193 264.274 203.193 283.407C203.193 302.54 218.703 318.05 237.836 318.05Z" fill="#13B5EC"/>
<path fill-rule="evenodd" clip-rule="evenodd" d="M240.434 276.695L248.229 272.148V281.242L240.434 276.695ZM248.229 296.181L237.836 302.244L227.443 296.181V285.572L237.836 291.635L248.229 285.572V296.181ZM227.443 272.148L235.238 276.695L227.443 281.242V272.148ZM239.135 278.86L246.93 283.407L239.135 287.954V278.86ZM236.537 287.954L228.742 283.407L236.537 278.86V287.954ZM246.93 269.983L237.836 275.179L228.742 269.983L237.836 264.57L246.93 269.983ZM224.845 269.117V297.481L237.836 304.842L250.827 297.481V269.117L237.836 261.755L224.845 269.117Z" fill="white"/>
</g>
<defs>
<linearGradient id="paint0_linear_21_2181" x1="289.824" y1="197.89" x2="289.824" y2="157.852" gradientUnits="userSpaceOnUse">
<stop stop-color="#002D74"/>
<stop offset="1" stop-color="#002D74" stop-opacity="0"/>
</linearGradient>
<linearGradient id="paint1_linear_21_2181" x1="255.156" y1="117.814" x2="255.156" y2="157.852" gradientUnits="userSpaceOnUse">
<stop stop-color="#002D74"/>
<stop offset="1" stop-color="#002D74" stop-opacity="0"/>
</linearGradient>
<clipPath id="clip0_21_2181">
<rect width="69.2857" height="69.2857" fill="white" transform="translate(119.357 124.05)"/>
</clipPath>
<clipPath id="clip1_21_2181">
<rect width="69.2857" height="69.3318" fill="white" transform="translate(35.5215 248.072)"/>
</clipPath>
<clipPath id="clip2_21_2181">
<rect width="69.2857" height="69.2857" fill="white" transform="translate(0.878662 123.357)"/>
</clipPath>
<clipPath id="clip3_21_2181">
<rect width="69.2857" height="69.2857" fill="white" transform="translate(203.193 0.0285645)"/>
</clipPath>
<clipPath id="clip4_21_2181">
<rect width="69.2857" height="60.4446" fill="white" transform="translate(35.5215 2.80005)"/>
</clipPath>
<clipPath id="clip5_21_2181">
<rect width="69.2857" height="80.0737" fill="white" transform="translate(237.836 117.814)"/>
</clipPath>
<clipPath id="clip6_21_2181">
<rect width="69.2857" height="69.2857" fill="white" transform="translate(203.193 248.764)"/>
</clipPath>
</defs>
</svg>
